# xmcd
#
# Track frame offsets: 
#        150
#        18797
#        38127
#        59262
#        77845
#        103975
#        123440
#        142905
#        165565
#        190022
#
# Disc length: 2744 seconds
#
# Revision: 2
# Processed by: cddbd v1.5.2PL0 Copyright (c) Steve Scherf et al.
# Submitted via: ExactAudioCopy v0.99pb4
#
DISCID=7a0ab60a
DTITLE=Wax - Magnetic Heaven
DYEAR=1986
DGENRE=Pop/Rock
TTITLE0=Right Between The Eyes
TTITLE1=Hear No Evil
TTITLE2=Shadows Of Love
TTITLE3=Marie Claire
TTITLE4=Ball And Chain
TTITLE5=Systematic
TTITLE6=Breakout
TTITLE7=Only A Visitor
TTITLE8=Rise Up
TTITLE9=Magnetic Heaven
EXTD=
EXTT0=
EXTT1=
EXTT2=
EXTT3=
EXTT4=
EXTT5=
EXTT6=
EXTT7=
EXTT8=
EXTT9=
PLAYORDER=
